<svg width="29" height="29" viewBox="0 0 29 29" fill="none" xmlns="http://www.w3.org/2000/svg">
<g clip-path="url(#clip0_287_444)">
<path d="M28.5004 14.8111C28.5004 13.6632 28.4051 12.8256 28.1988 11.957H14.7861V17.1377H22.6591C22.5004 18.4251 21.6433 20.364 19.7385 21.6669L19.7118 21.8403L23.9526 25.0508L24.2464 25.0794C26.9448 22.6442 28.5004 19.0611 28.5004 14.8111Z" fill="#009199"/>
<path d="M14.7854 28.4607C18.6425 28.4607 21.8805 27.2198 24.2457 25.0793L19.7377 21.6668C18.5314 22.4889 16.9123 23.0628 14.7854 23.0628C11.0076 23.0628 7.8013 20.6276 6.65833 17.2617L6.4908 17.2756L2.08111 20.6105L2.02344 20.7672C4.37262 25.3274 9.19803 28.4607 14.7854 28.4607Z" fill="#34A853"/>
<path d="M6.65867 17.2615C6.35709 16.3928 6.18255 15.4621 6.18255 14.5005C6.18255 13.5387 6.35709 12.6081 6.6428 11.7395L6.63481 11.5545L2.16986 8.16602L2.02377 8.23392C1.05556 10.1263 0.5 12.2514 0.5 14.5005C0.5 16.7496 1.05556 18.8745 2.02377 20.7669L6.65867 17.2615Z" fill="#FBBC05"/>
<path d="M14.7854 5.93689C17.4679 5.93689 19.2774 7.0692 20.3092 8.01544L24.3409 4.16866C21.8648 1.91956 18.6425 0.539062 14.7854 0.539062C9.19803 0.539062 4.37262 3.67228 2.02344 8.23251L6.64247 11.7381C7.8013 8.37217 11.0076 5.93689 14.7854 5.93689Z" fill="#EB4335"/>
</g>
<defs>
<clipPath id="clip0_287_444">
<rect width="28" height="28" fill="white" transform="translate(0.5 0.5)"/>
</clipPath>
</defs>
</svg>
