<svg width="20" height="20" viewBox="0 0 20 20" fill="none" xmlns="http://www.w3.org/2000/svg">
<g clip-path="url(#clip0_66_1494)">
<path d="M0.9375 14.9998C0.9375 15.4067 1.19969 15.7504 1.5625 15.8798V14.1201C1.19969 14.2492 0.9375 14.5929 0.9375 14.9998Z" fill="#363636"/>
<path d="M2.5 12.5C2.5 12.1553 2.21969 11.875 1.875 11.875C1.53031 11.875 1.25 12.1553 1.25 12.5V13.57C1.41969 13.4956 1.60563 13.4547 1.8 13.445C1.97188 13.2503 2.22062 13.125 2.5 13.125V12.5Z" fill="#363636"/>
<path d="M2.1875 14.0625V15.9375C2.1875 16.11 2.3275 16.25 2.5 16.25H2.8125V13.75H2.5C2.3275 13.75 2.1875 13.89 2.1875 14.0625Z" fill="#363636"/>
<path d="M4.6875 16.25V13.75C4.6875 13.4053 4.40719 13.125 4.0625 13.125C3.71781 13.125 3.4375 13.4053 3.4375 13.75V16.25C3.4375 16.5947 3.71781 16.875 4.0625 16.875C4.40719 16.875 4.6875 16.5947 4.6875 16.25Z" fill="#363636"/>
<path d="M1.875 10C2.22018 10 2.5 9.72018 2.5 9.375C2.5 9.02982 2.22018 8.75 1.875 8.75C1.52982 8.75 1.25 9.02982 1.25 9.375C1.25 9.72018 1.52982 10 1.875 10Z" fill="#363636"/>
<path d="M1.5625 10.5806V11.2943C1.66313 11.2681 1.76656 11.2499 1.875 11.2499C1.98344 11.2499 2.08688 11.2681 2.1875 11.2943V10.5806C2.08688 10.6068 1.98344 10.6249 1.875 10.6249C1.76656 10.6249 1.66313 10.6068 1.5625 10.5806Z" fill="#363636"/>
<path d="M18.4375 14.1201V15.8798C18.8003 15.7504 19.0625 15.4067 19.0625 14.9998C19.0625 14.5929 18.8003 14.2495 18.4375 14.1201Z" fill="#363636"/>
<path d="M18.125 10C18.4702 10 18.75 9.72018 18.75 9.375C18.75 9.02982 18.4702 8.75 18.125 8.75C17.7798 8.75 17.5 9.02982 17.5 9.375C17.5 9.72018 17.7798 10 18.125 10Z" fill="#363636"/>
<path d="M18.75 12.5C18.75 12.1553 18.4697 11.875 18.125 11.875C17.7803 11.875 17.5 12.1553 17.5 12.5V13.125C17.7794 13.125 18.0281 13.2503 18.2 13.445C18.3944 13.4544 18.5803 13.4953 18.75 13.57V12.5Z" fill="#363636"/>
<path d="M17.8125 10.5806V11.2943C17.9131 11.2681 18.0166 11.2499 18.125 11.2499C18.2334 11.2499 18.3369 11.2681 18.4375 11.2943V10.5806C18.3369 10.6068 18.2334 10.6249 18.125 10.6249C18.0166 10.6249 17.9131 10.6068 17.8125 10.5806Z" fill="#363636"/>
<path d="M17.5 13.75H17.1875V16.25H17.5C17.6725 16.25 17.8125 16.11 17.8125 15.9375V14.0625C17.8125 13.89 17.6725 13.75 17.5 13.75Z" fill="#363636"/>
<path d="M15.9375 13.125C15.5928 13.125 15.3125 13.4053 15.3125 13.75V16.25C15.3125 16.5947 15.5928 16.875 15.9375 16.875C16.2822 16.875 16.5625 16.5947 16.5625 16.25V13.75C16.5625 13.4053 16.2822 13.125 15.9375 13.125Z" fill="#363636"/>
<path d="M10 0.625C6.15129 0.625 2.88316 3.10969 1.71191 6.5625H3.04535C4.15785 3.81375 6.85254 1.875 10 1.875C13.1475 1.875 15.8422 3.81375 16.9547 6.5625H18.2882C17.1169 3.10969 13.8488 0.625 10 0.625Z" fill="#363636"/>
<path d="M10 15.9375C9.65469 15.9375 9.375 16.2172 9.375 16.5625V17.5C9.375 17.6725 9.515 17.8125 9.6875 17.8125V18.125C9.6875 18.6419 9.26687 19.0625 8.75 19.0625H4.375C3.51344 19.0625 2.8125 18.3616 2.8125 17.5V16.875H2.5C2.38938 16.875 2.28563 16.8506 2.1875 16.8147V17.5C2.1875 18.7059 3.16906 19.6875 4.375 19.6875H8.75C9.61156 19.6875 10.3125 18.9866 10.3125 18.125V17.8125C10.485 17.8125 10.625 17.6725 10.625 17.5V16.5625C10.625 16.2172 10.3453 15.9375 10 15.9375Z" fill="#363636"/>
<path d="M2.27832 8.1975C2.34707 7.74781 2.45426 7.305 2.59957 6.875H1.94051C1.81176 7.29063 1.71645 7.71625 1.65332 8.1475C1.72551 8.13438 1.79895 8.125 1.87488 8.125C2.01676 8.125 2.15113 8.15375 2.27832 8.1975Z" fill="#363636"/>
<path d="M17.4004 6.875C17.5457 7.305 17.6529 7.74813 17.7216 8.1975C17.8488 8.15375 17.9832 8.125 18.1251 8.125C18.201 8.125 18.2745 8.13438 18.3466 8.1475C18.2832 7.71625 18.1879 7.29063 18.0595 6.875H17.4004Z" fill="#363636"/>
</g>
<defs>
<clipPath id="clip0_66_1494">
<rect width="20" height="20" fill="white"/>
</clipPath>
</defs>
</svg>
