<svg width="22" height="22" viewBox="0 0 22 22" fill="none" xmlns="http://www.w3.org/2000/svg">
<g clip-path="url(#clip0_66_1536)">
<path d="M21.9826 11.1063C21.6633 16.9419 16.462 21.4452 10.4597 20.7574C7.38084 20.412 4.60233 18.6372 3.03459 16.0367C3.00243 15.9789 2.91046 15.8219 2.87776 15.7628C2.78765 15.6138 2.71562 15.4513 2.63348 15.2979C2.56437 15.1629 2.48011 14.9592 2.41525 14.8213C2.35651 14.67 2.28022 14.487 2.22573 14.3336C2.18878 14.223 2.13004 14.0478 2.09256 13.9374C2.07502 13.8729 2.02611 13.7023 2.00803 13.6357C1.74967 12.7021 1.64813 11.7127 1.68906 10.7476C1.69145 10.6035 1.72043 10.2739 1.73478 10.1249L1.79087 9.71261C1.79725 9.65353 1.81665 9.56723 1.82702 9.50789C2.40063 6.14347 4.96995 3.21233 8.2838 2.12394C10.9913 1.20114 14.0803 1.50408 16.5422 2.94153C17.3716 3.42068 18.1307 4.02007 18.7891 4.71379C18.114 5.49847 17.4396 6.28392 16.7676 7.07119C14.4261 9.81316 12.1024 12.5696 9.80715 15.3487C9.29574 14.8226 8.51532 14.0224 8.09879 13.5989C7.53235 13.0221 6.7227 12.2053 6.15785 11.643C6.94731 12.6396 7.94276 13.8563 8.75136 14.8472L9.62401 15.9084C9.63092 15.9167 9.63943 15.9258 9.64767 15.9333C9.75559 16.0338 9.92783 16.0196 10.0219 15.9081C13.4626 12.3592 16.8532 8.76494 20.2163 5.1463C20.4377 4.90996 20.4515 4.54172 20.2367 4.28647C20.036 4.03199 19.8237 3.78607 19.6017 3.5487C17.2908 1.07157 13.8552 -0.240717 10.4329 0.0365629C5.00344 0.424496 0.568674 4.67751 0.0516739 9.95672C-0.104091 11.5704 0.0907479 13.2294 0.657188 14.7555C1.65504 17.5117 3.82192 19.803 6.54142 21.021C10.4374 22.7855 15.2278 22.1311 18.4239 19.3288C20.8069 17.2795 22.1731 14.1924 21.9823 11.1063H21.9826Z" fill="#009199"/>
</g>
<defs>
<clipPath id="clip0_66_1536">
<rect width="22" height="22" fill="white"/>
</clipPath>
</defs>
</svg>
